#!OML:ASF Y:\EmotionMaleHayes\Project 1\Capture day 1\Session 1\Male1.ASF
:FULLY-SPECIFIED
:DEGREES
926
root 11.191 17.3431 2.95565 509.217 78.668 510.256
lowerback 6.33382 -0.648285 -2.538
upperback 6.43585 -0.702565 -0.276079
thorax 3.13443 -0.338971 1.1662
lowerneck -24.0329 2.41537 2.2678
upperneck 27.6818 2.96468 -0.229327
head 13.384 1.61262 0.0964322
rclavicle -3.57812e-015 -7.15625e-015
rhumerus 51.7419 12.7687 -30.4593
rradius 39.7077
rwrist -3.52346
rhand 1.44125 -31.7389
rfingers 7.12502
rthumb 26.9701 -59.834
lclavicle -3.57812e-015 -7.15625e-015
lhumerus 47.8659 -14.2034 24.8745
lradius 38.6408
lwrist 8.15688
lhand -7.87657 -20.1039
lfingers 7.12502
lthumb 18.0276 9.08061
rfemur 7.60986 -4.44586 12.0218
rtibia 9.55815
rfoot -17.8081 -2.2955
rtoes 8.61592
lfemur 8.03235 -1.90082 -5.09983
ltibia 27.8653
lfoot -2.80246 7.98286
ltoes 15.9268
927
root 11.2547 17.3362 2.95934 508.704 78.6666 509.901
lowerback 6.13683 -0.641449 -2.54137
upperback 6.61358 -0.675558 -0.300621
thorax 3.42941 -0.326248 1.1391
lowerneck -24.0837 2.48033 2.54875
upperneck 27.4523 3.00047 -0.451524
head 13.3093 1.62165 -0.0335631
rclavicle 1.8487e-014 -2.22639e-014
rhumerus 51.9041 12.4854 -30.5578
rradius 39.656
rwrist -3.55611
rhand 1.3773 -31.8374
rfingers 7.12502
rthumb 26.9089 -59.9419
lclavicle 1.8487e-014 -2.22639e-014
lhumerus 48.1416 -14.0619 24.6658
lradius 38.6199
lwrist 8.40089
lhand -7.89138 -19.9754
lfingers 7.12502
lthumb 18.0134 9.2104
rfemur 7.99855 -4.23312 12.0515
rtibia 9.64983
rfoot -18.0439 -2.47845
rtoes 8.55706
lfemur 8.03926 -1.89638 -5.17668
ltibia 27.5802
lfoot -3.26787 7.93618
ltoes 14.4209
928
root 11.3184 17.3325 2.96369 508.727 78.6415 510.05
lowerback 6.06153 -0.640743 -2.47682
upperback 6.58774 -0.672464 -0.334003
thorax 3.4423 -0.322182 1.06779
lowerneck -23.712 2.51609 2.78194
upperneck 27.2096 2.98576 -0.510046
head 13.1389 1.63333 -0.104736
rclavicle -6.75868e-015 1.59028e-015
rhumerus 51.8454 12.4286 -30.712
rradius 39.6056
rwrist -3.39244
rhand 1.77246 -31.9399
rfingers 7.12502
rthumb 27.287 -59.9855
lclavicle -6.75868e-015 1.59028e-015
lhumerus 48.149 -14.0779 24.6426
lradius 38.755
lwrist 7.80606
lhand -7.47024 -19.6907
lfingers 7.12502
lthumb 18.4185 9.45733
rfemur 8.30113 -4.01126 12.1945
rtibia 9.81957
rfoot -18.335 -2.74819
rtoes 7.98474
lfemur 7.95495 -1.84728 -5.11443
ltibia 27.3188
lfoot -3.46633 7.92321
ltoes 15.5199
929
root 11.3818 17.3295 2.96196 509.27 78.7596 510.678
lowerback 5.97252 -0.668224 -2.30589
upperback 6.51607 -0.711172 -0.236478
thorax 3.41593 -0.33894 1.07332
lowerneck -23.6549 2.55313 2.70594
upperneck 27.2704 3.06204 -0.466923
head 13.1514 1.66655 -0.0613177
rclavicle -4.17448e-015 -7.95139e-016
rhumerus 51.8376 12.4336 -30.9157
rradius 39.5725
rwrist -2.85317
rhand 2.37272 -31.6849
rfingers 7.12502
rthumb 27.861 -59.6389
lclavicle -4.17448e-015 -7.95139e-016
lhumerus 47.8801 -14.0276 24.9587
lradius 38.794
lwrist 7.20101
lhand -7.23926 -19.7031
lfingers 7.12502
lthumb 18.6407 9.42376
rfemur 8.56928 -3.92849 12.452
rtibia 9.87214
rfoot -18.4882 -2.88311
rtoes 6.51182
lfemur 7.85248 -1.71113 -4.905
ltibia 27.0526
lfoot -3.71959 7.86058
ltoes 15.6265
930
root 11.4448 17.3265 2.96186 510.92 79.0749 512.447
lowerback 5.94501 -0.682589 -1.85708
upperback 6.45878 -0.725675 -0.0577878
thorax 3.3654 -0.333782 1.0069
lowerneck -23.9771 2.5681 2.49665
upperneck 27.6175 3.12786 -0.340204
head 13.3552 1.69188 0.0430835
rclavicle 1.72943e-014 -7.95139e-015
rhumerus 51.7785 12.3676 -31.2799
rradius 39.4986
rwrist -2.18072
rhand 2.70346 -31.3207
rfingers 7.12502
rthumb 28.1772 -59.223
lclavicle 1.72943e-014 -7.95139e-015
lhumerus 47.7727 -14.0487 25.0925
lradius 38.6937
lwrist 7.18665
lhand -7.27547 -19.8505
lfingers 7.12502
lthumb 18.6059 9.27968
rfemur 8.86172 -3.70991 13.1171
rtibia 9.83332
rfoot -18.5755 -3.07975
rtoes 6.21673
lfemur 7.75109 -1.56569 -4.32543
ltibia 26.8227
lfoot -4.27269 7.66136
ltoes 15.5018
